<mxfile host="Electron" agent="Mozilla/5.0 (X11; Linux x86_64) AppleWebKit/537.36 (KHTML, like Gecko) draw.io/26.0.7 Chrome/128.0.6613.186 Electron/32.2.5 Safari/537.36" version="26.0.7">
  <diagram name="Страница — 1" id="3CRPLCyEK8O-Rs985PWd">
    <mxGraphModel dx="1430" dy="830" grid="1" gridSize="10" guides="1" tooltips="1" connect="1" arrows="1" fold="1" page="1" pageScale="1" pageWidth="850" pageHeight="1100" math="0" shadow="0">
      <root>
        <mxCell id="0" />
        <mxCell id="1" parent="0" />
        <mxCell id="Vs75zDIMN4_pyWgxl_LH-1" value="&lt;font style=&quot;font-size: 29px;&quot;&gt;CRM&lt;/font&gt;" style="rounded=0;whiteSpace=wrap;html=1;" vertex="1" parent="1">
          <mxGeometry x="80" y="60" width="680" height="80" as="geometry" />
        </mxCell>
        <mxCell id="Vs75zDIMN4_pyWgxl_LH-2" value="" style="rounded=0;whiteSpace=wrap;html=1;" vertex="1" parent="1">
          <mxGeometry x="80" y="250" width="680" height="480" as="geometry" />
        </mxCell>
        <mxCell id="Vs75zDIMN4_pyWgxl_LH-3" value="trudex-services" style="text;html=1;align=center;verticalAlign=middle;resizable=0;points=[];autosize=1;strokeColor=none;fillColor=none;" vertex="1" parent="1">
          <mxGeometry x="670" y="220" width="100" height="30" as="geometry" />
        </mxCell>
        <mxCell id="Vs75zDIMN4_pyWgxl_LH-4" value="trud_distributor" style="rounded=0;whiteSpace=wrap;html=1;" vertex="1" parent="1">
          <mxGeometry x="130" y="310" width="130" height="60" as="geometry" />
        </mxCell>
        <mxCell id="Vs75zDIMN4_pyWgxl_LH-5" value="queue-sender" style="html=1;shadow=0;dashed=0;align=center;verticalAlign=middle;shape=mxgraph.arrows2.arrow;dy=0;dx=10;notch=0;rotation=-90;fillColor=#ffe6cc;strokeColor=#d79b00;" vertex="1" parent="1">
          <mxGeometry x="595" y="410" width="100" height="20" as="geometry" />
        </mxCell>
        <mxCell id="Vs75zDIMN4_pyWgxl_LH-6" value="trud_sender" style="rounded=0;whiteSpace=wrap;html=1;" vertex="1" parent="1">
          <mxGeometry x="580" y="310" width="130" height="60" as="geometry" />
        </mxCell>
        <mxCell id="Vs75zDIMN4_pyWgxl_LH-8" value="rammitMQ" style="rounded=0;whiteSpace=wrap;html=1;fillColor=#ffe6cc;strokeColor=#d79b00;" vertex="1" parent="1">
          <mxGeometry x="365" y="310" width="120" height="60" as="geometry" />
        </mxCell>
        <mxCell id="Vs75zDIMN4_pyWgxl_LH-15" value="" style="endArrow=classic;html=1;rounded=0;entryX=0.5;entryY=0;entryDx=0;entryDy=0;exitX=0.17;exitY=0.984;exitDx=0;exitDy=0;exitPerimeter=0;" edge="1" parent="1" source="Vs75zDIMN4_pyWgxl_LH-1" target="Vs75zDIMN4_pyWgxl_LH-4">
          <mxGeometry relative="1" as="geometry">
            <mxPoint x="241" y="142" as="sourcePoint" />
            <mxPoint x="400" y="320" as="targetPoint" />
          </mxGeometry>
        </mxCell>
        <mxCell id="Vs75zDIMN4_pyWgxl_LH-19" value="" style="endArrow=classic;html=1;rounded=0;entryX=0.831;entryY=1.007;entryDx=0;entryDy=0;entryPerimeter=0;exitX=0.5;exitY=0;exitDx=0;exitDy=0;" edge="1" parent="1" source="Vs75zDIMN4_pyWgxl_LH-6" target="Vs75zDIMN4_pyWgxl_LH-1">
          <mxGeometry relative="1" as="geometry">
            <mxPoint x="640" y="270" as="sourcePoint" />
            <mxPoint x="480" y="530" as="targetPoint" />
          </mxGeometry>
        </mxCell>
        <mxCell id="Vs75zDIMN4_pyWgxl_LH-20" value="" style="rounded=0;whiteSpace=wrap;html=1;dashed=1;" vertex="1" parent="1">
          <mxGeometry x="190" y="450" width="400" height="210" as="geometry" />
        </mxCell>
        <mxCell id="Vs75zDIMN4_pyWgxl_LH-7" value="" style="html=1;shadow=0;dashed=0;align=center;verticalAlign=middle;shape=mxgraph.arrows2.arrow;dy=0;dx=10;notch=0;rotation=90;fillColor=#ffe6cc;strokeColor=#d79b00;" vertex="1" parent="1">
          <mxGeometry x="220" y="500" width="70" height="20" as="geometry" />
        </mxCell>
        <mxCell id="Vs75zDIMN4_pyWgxl_LH-22" value="service-1" style="rounded=0;whiteSpace=wrap;html=1;" vertex="1" parent="1">
          <mxGeometry x="202.5" y="550" width="105" height="60" as="geometry" />
        </mxCell>
        <mxCell id="Vs75zDIMN4_pyWgxl_LH-23" value="" style="html=1;shadow=0;dashed=0;align=center;verticalAlign=middle;shape=mxgraph.arrows2.arrow;dy=0;dx=10;notch=0;rotation=90;fillColor=#ffe6cc;strokeColor=#d79b00;" vertex="1" parent="1">
          <mxGeometry x="337.5" y="500" width="70" height="20" as="geometry" />
        </mxCell>
        <mxCell id="Vs75zDIMN4_pyWgxl_LH-24" value="service-2" style="rounded=0;whiteSpace=wrap;html=1;" vertex="1" parent="1">
          <mxGeometry x="320" y="550" width="105" height="60" as="geometry" />
        </mxCell>
        <mxCell id="Vs75zDIMN4_pyWgxl_LH-25" value="" style="html=1;shadow=0;dashed=0;align=center;verticalAlign=middle;shape=mxgraph.arrows2.arrow;dy=0;dx=10;notch=0;rotation=90;fillColor=#ffe6cc;strokeColor=#d79b00;" vertex="1" parent="1">
          <mxGeometry x="487.5" y="500" width="70" height="20" as="geometry" />
        </mxCell>
        <mxCell id="Vs75zDIMN4_pyWgxl_LH-26" value="service-N" style="rounded=0;whiteSpace=wrap;html=1;" vertex="1" parent="1">
          <mxGeometry x="470" y="550" width="105" height="60" as="geometry" />
        </mxCell>
        <mxCell id="Vs75zDIMN4_pyWgxl_LH-27" value="..." style="text;html=1;align=center;verticalAlign=middle;resizable=0;points=[];autosize=1;strokeColor=none;fillColor=none;" vertex="1" parent="1">
          <mxGeometry x="430" y="565" width="30" height="30" as="geometry" />
        </mxCell>
        <mxCell id="Vs75zDIMN4_pyWgxl_LH-28" style="edgeStyle=orthogonalEdgeStyle;rounded=0;orthogonalLoop=1;jettySize=auto;html=1;entryX=0;entryY=0.5;entryDx=0;entryDy=0;entryPerimeter=0;" edge="1" parent="1" source="Vs75zDIMN4_pyWgxl_LH-4" target="Vs75zDIMN4_pyWgxl_LH-7">
          <mxGeometry relative="1" as="geometry" />
        </mxCell>
        <mxCell id="Vs75zDIMN4_pyWgxl_LH-29" style="edgeStyle=orthogonalEdgeStyle;rounded=0;orthogonalLoop=1;jettySize=auto;html=1;entryX=0;entryY=0.5;entryDx=0;entryDy=0;entryPerimeter=0;exitX=0.5;exitY=1;exitDx=0;exitDy=0;" edge="1" parent="1" source="Vs75zDIMN4_pyWgxl_LH-4" target="Vs75zDIMN4_pyWgxl_LH-23">
          <mxGeometry relative="1" as="geometry" />
        </mxCell>
        <mxCell id="Vs75zDIMN4_pyWgxl_LH-30" style="edgeStyle=orthogonalEdgeStyle;rounded=0;orthogonalLoop=1;jettySize=auto;html=1;entryX=0;entryY=0.5;entryDx=0;entryDy=0;entryPerimeter=0;exitX=0.5;exitY=1;exitDx=0;exitDy=0;" edge="1" parent="1" source="Vs75zDIMN4_pyWgxl_LH-4" target="Vs75zDIMN4_pyWgxl_LH-25">
          <mxGeometry relative="1" as="geometry" />
        </mxCell>
        <mxCell id="Vs75zDIMN4_pyWgxl_LH-31" style="edgeStyle=orthogonalEdgeStyle;rounded=0;orthogonalLoop=1;jettySize=auto;html=1;entryX=0;entryY=0.5;entryDx=0;entryDy=0;entryPerimeter=0;" edge="1" parent="1" source="Vs75zDIMN4_pyWgxl_LH-22" target="Vs75zDIMN4_pyWgxl_LH-5">
          <mxGeometry relative="1" as="geometry">
            <Array as="points">
              <mxPoint x="255" y="700" />
              <mxPoint x="645" y="700" />
            </Array>
          </mxGeometry>
        </mxCell>
        <mxCell id="Vs75zDIMN4_pyWgxl_LH-32" style="edgeStyle=orthogonalEdgeStyle;rounded=0;orthogonalLoop=1;jettySize=auto;html=1;entryX=0;entryY=0.5;entryDx=0;entryDy=0;entryPerimeter=0;" edge="1" parent="1" source="Vs75zDIMN4_pyWgxl_LH-24" target="Vs75zDIMN4_pyWgxl_LH-5">
          <mxGeometry relative="1" as="geometry">
            <Array as="points">
              <mxPoint x="372" y="700" />
              <mxPoint x="645" y="700" />
            </Array>
          </mxGeometry>
        </mxCell>
        <mxCell id="Vs75zDIMN4_pyWgxl_LH-33" style="edgeStyle=orthogonalEdgeStyle;rounded=0;orthogonalLoop=1;jettySize=auto;html=1;entryX=0;entryY=0.5;entryDx=0;entryDy=0;entryPerimeter=0;" edge="1" parent="1" source="Vs75zDIMN4_pyWgxl_LH-26" target="Vs75zDIMN4_pyWgxl_LH-5">
          <mxGeometry relative="1" as="geometry">
            <Array as="points">
              <mxPoint x="522" y="700" />
              <mxPoint x="645" y="700" />
            </Array>
          </mxGeometry>
        </mxCell>
        <mxCell id="Vs75zDIMN4_pyWgxl_LH-34" value="queue-N" style="text;html=1;align=center;verticalAlign=middle;resizable=0;points=[];autosize=1;strokeColor=none;fillColor=none;rotation=-90;" vertex="1" parent="1">
          <mxGeometry x="487.5" y="495" width="70" height="30" as="geometry" />
        </mxCell>
        <mxCell id="Vs75zDIMN4_pyWgxl_LH-35" value="queue-2" style="text;html=1;align=center;verticalAlign=middle;resizable=0;points=[];autosize=1;strokeColor=none;fillColor=none;rotation=-90;" vertex="1" parent="1">
          <mxGeometry x="337.5" y="495" width="70" height="30" as="geometry" />
        </mxCell>
        <mxCell id="Vs75zDIMN4_pyWgxl_LH-36" value="queue-1" style="text;html=1;align=center;verticalAlign=middle;resizable=0;points=[];autosize=1;strokeColor=none;fillColor=none;rotation=-90;" vertex="1" parent="1">
          <mxGeometry x="220" y="495" width="70" height="30" as="geometry" />
        </mxCell>
      </root>
    </mxGraphModel>
  </diagram>
</mxfile>
